<?xml version="1.0" standalone="no"?><!DOCTYPE svg PUBLIC "-//W3C//DTD SVG 1.1//EN" "http://www.w3.org/Graphics/SVG/1.1/DTD/svg11.dtd"><svg class="icon" width="200px" height="200.00px" viewBox="0 0 1024 1024" version="1.1" xmlns="http://www.w3.org/2000/svg"><path fill="#d81e06" d="M856.8 389.8c-18.9-44.7-45.9-84.8-80.4-119.2-18.9-18.9-39.5-35.6-61.7-49.9-10-6.5-23.3 0.6-23.3 12.6 0 5.1 2.6 9.9 6.9 12.6 95 61.5 158 168.5 158 289.8 0 190.3-154.8 345-345 345s-345-154.8-345-345c0-122.4 64.1-230.2 160.5-291.4 4.4-2.8 7-7.6 7-12.7 0-11.8-13.1-19.1-23.1-12.8-23.2 14.7-44.8 32-64.6 51.8-34.4 34.4-61.5 74.5-80.4 119.2-19.6 46.2-29.5 95.3-29.5 146s9.9 99.7 29.5 146c18.9 44.7 45.9 84.8 80.4 119.2 34.4 34.4 74.5 61.5 119.2 80.4 46.2 19.6 95.3 29.5 146 29.5 50.6 0 99.7-9.9 146-29.5 44.7-18.9 84.8-45.9 119.2-80.4s61.5-74.5 80.4-119.2c19.6-46.2 29.5-95.3 29.5-146s-10-99.8-29.6-146z"  /><path fill="#d81e06" d="M512 431.1c-8.8 0-16-7.2-16-16V98.2c0-8.8 7.2-16 16-16s16 7.2 16 16V415c0 8.9-7.2 16.1-16 16.1z"  /></svg>