<?xml version="1.0" standalone="no"?><!DOCTYPE svg PUBLIC "-//W3C//DTD SVG 1.1//EN" "http://www.w3.org/Graphics/SVG/1.1/DTD/svg11.dtd"><svg class="icon" width="200px" height="200.00px" viewBox="0 0 1024 1024" version="1.1" xmlns="http://www.w3.org/2000/svg"><path fill="#4080FF" d="M628.207818 934.314264c1.4239 0.063995 2.783804 0.191986 4.215703 0.191987h321.841339c37.685347-0.039997 68.235195-29.413929 68.267193-65.675376V151.185405c-0.031998-36.253447-30.581847-65.627379-68.267193-65.667376H632.423521c-1.431899 0-2.823801 0.127991-4.215703 0.191986V0.036048L0.036048 80.686369v859.187504l628.17177 82.730175v-88.289784z m0-810.838908c1.391902-0.191986 2.783804-0.415971 4.215703-0.41597h321.841339c16.142863 0 29.269939 12.623111 29.269939 28.158017v717.653469c-0.023998 15.534906-13.119076 28.134019-29.269939 28.150018H632.423521c-1.431899 0-2.823801-0.223984-4.215703-0.41597V123.475356zM242.115003 606.049378l-149.757456-3.679741V578.955286l90.393636-133.374609v-1.183917l-82.122218 1.311908v-36.07746l140.022141-3.519752v26.110161L149.593517 566.076192v1.151919l92.521486 1.407901v37.421365z m75.346695 1.84787l-46.580721-1.151919V405.375508l46.580721-1.151919v203.673659z m178.027465-93.049449c-17.342779 15.374917-42.820985 22.078445-72.15492 21.886459-5.615605 0.031998-11.21521-0.319977-16.774819-1.047926v74.41876l-47.972622-1.183916V405.951467c14.814957-2.815802 35.781481-5.175636 65.739371-5.943582 30.701838-0.767946 52.860278 4.311696 67.835224 15.302923 14.454982 10.447264 24.254292 27.998029 24.254292 48.892557s-7.407478 38.661278-20.894529 50.644434h-0.031997zM426.885993 435.605379c-6.847518-0.079994-13.679037 0.663953-20.326569 2.199845v61.451673c4.183705 0.927935 9.335343 1.215914 16.47884 1.215915 26.406141-0.031998 42.876981-12.911091 42.876981-34.509571 0-19.398634-14.175002-30.741835-38.997254-30.325864l-0.031998-0.031998z m318.753556-296.507123h76.506613v30.357863h-76.506613v-30.357863z m-76.538611 45.436801h76.506613v30.39786h-76.506613v-30.39786z m76.538611 49.724499h76.506613v30.38986h-76.506613V234.259556z m0 95.993241h76.506613v30.349863h-76.506613V330.252797z m-76.538611-48.764566h76.506613v30.357862h-76.506613v-30.357862z m75.770665 376.485491c20.094585 0 39.365228-7.679459 53.572228-21.358496 14.207-13.663038 22.182438-32.205732 22.174439-51.532372l-13.983016-122.095403c0-40.261165-19.934596-72.890868-61.795648-72.890868-41.853053 0-61.755652 32.629703-61.755652 72.890868l-14.015013 122.095403c-0.007999 19.334639 7.967439 37.877333 22.182438 51.548371 14.214999 13.679037 33.493642 21.350497 53.596226 21.342497h0.023998z m-25.078234-133.990566h50.156469v101.936823h-50.156469V523.999155z" /></svg>