# 初始化：常见文件头hash信息（同一扩展名，允许出现多个hash值！）
# 注意：目前的文件头map可能不完整，如果文件类型判断失败，请自行测试，并把新的文件头，放到最后
# 格式：hash|扩展名

49492a00227105008037|tif
424d228c010000000000|bmp
424d8240090000000000|bmp
424d8e1b030000000000|bmp
41433130313500000000|dwg
3c21444f435459504520|html
3c21646f637479706520|htm
48544d4c207b0d0a0942|css
696b2e71623d696b2e71|js
7b5c727466315c616e73|rtf
38425053000100000000|psd
46726f6d3a203d3f6762|eml
5374616E64617264204A|mdb
252150532D41646F6265|ps
2e524d46000000120001|rmvb
464c5601050000000900|flv
000001ba210001000180|mpg
3026b2758e66cf11a6d9|wmv
52494646e27807005741|wav
52494646d07d60074156|avi
4d546864000000060001|mid
235468697320636f6e66|ini
4d5a9000030000000400|exe
3c25402070616765206c|jsp
4d616e69666573742d56|mf
3c3f786d6c2076657273|xml
494e5345525420494e54|sql
7061636b616765207765|java
406563686f206f66660d|bat
1f8b0800000000000000|gz
6c6f67346a2e726f6f74|properties
cafebabe0000002e0041|class
49545346030000006000|chm
04000000010000001300|mxp
6431303a637265617465|torrent

# 上面是网络上常见文件头，下面是经过测试优化后的
# 支持模糊匹配，缩短文件头hash长度，可增加匹配范围
526172211a07|rar
6D6F6F76|mov
FF575043|wpd
CFAD12FEC5FD746F|dbx
2142444E|pst
AC9EBD8F|qdf
E3828596|pwl
2E7261FD|ram
ffd8ff|jpg
89504e470d0a1a0a|png
474946383761|gif
474946383961|gif
25504446|pdf
494433|mp3
00000020667479706|mp4
00000018667479706D70|mp4

# 有可能出现同一文件头对应多个扩展名的情况，扩展名用逗号隔开，如下
# MS Excel 注意：2003版word、msi和excel的文件头一样
d0cf11e0a1b11ae10|doc,vsd,xls,wps,ppt
# 新版word、excel、ppt等，文件头一样
504B0304|docx,xlsx,pptx,zip,jar